# This file uses centimeters as units for non-parametric coordinates.

v 0.153823 1.271570 -0.266429
v -0.153823 1.271570 -0.266429
v -0.307646 1.271570 -0.000000
v -0.153823 1.271570 0.266429
v 0.153823 1.271570 0.266429
v 0.307646 1.271570 -0.000000
v 0.148581 1.191945 -0.257351
v -0.148581 1.191945 -0.257351
v -0.297163 1.191945 -0.000000
v -0.148581 1.191945 0.257351
v 0.148581 1.191945 0.257351
v 0.297163 1.191945 -0.000000
v 0.133214 1.117747 -0.230734
v -0.133214 1.117747 -0.230734
v -0.266429 1.117747 -0.000000
v -0.133214 1.117747 0.230734
v 0.133214 1.117747 0.230734
v 0.266429 1.117747 -0.000000
v 0.108769 1.054031 -0.188394
v -0.108769 1.054031 -0.188394
v -0.217538 1.054031 -0.000000
v -0.108769 1.054031 0.188394
v 0.108769 1.054031 0.188394
v 0.217538 1.054031 -0.000000
v 0.076911 1.005141 -0.133214
v -0.076911 1.005141 -0.133214
v -0.153823 1.005141 -0.000000
v -0.076911 1.005141 0.133214
v 0.076911 1.005141 0.133214
v 0.153823 1.005141 -0.000000
v 0.039812 0.974407 -0.068957
v -0.039812 0.974407 -0.068957
v -0.079625 0.974407 -0.000000
v -0.039812 0.974407 0.068957
v 0.039812 0.974407 0.068957
v 0.079625 0.974407 -0.000000
v 0.000000 0.963924 -0.000000
v 0.148581 1.351194 -0.257351
v -0.148581 1.351194 -0.257351
v -0.297163 1.351194 0.000000
v -0.148581 1.351194 0.257351
v 0.148581 1.351194 0.257351
v 0.297163 1.351194 0.000000
v 0.133214 1.425392 -0.230734
v -0.133214 1.425392 -0.230734
v -0.266429 1.425392 0.000000
v -0.133214 1.425392 0.230734
v 0.133214 1.425392 0.230734
v 0.266429 1.425392 0.000000
v 0.108769 1.489108 -0.188394
v -0.108769 1.489108 -0.188394
v -0.217538 1.489108 0.000000
v -0.108769 1.489108 0.188394
v 0.108769 1.489108 0.188394
v 0.217538 1.489108 0.000000
v 0.076911 1.537999 -0.133214
v -0.076911 1.537999 -0.133214
v -0.153823 1.537999 0.000000
v -0.076911 1.537999 0.133214
v 0.076911 1.537999 0.133214
v 0.153823 1.537999 0.000000
v 0.039812 1.568732 -0.068957
v -0.039812 1.568732 -0.068957
v -0.079625 1.568732 0.000000
v -0.039812 1.568732 0.068957
v 0.039812 1.568732 0.068957
v 0.079625 1.568732 0.000000
v 0.000000 1.579215 0.000000
v 0.153823 0.000000 -0.266429
v -0.153823 0.000000 -0.266429
v -0.307646 0.000000 -0.000000
v -0.153823 0.000000 0.266429
v 0.153823 0.000000 0.266429
v 0.307646 0.000000 0.000000
v 0.153823 0.615291 -0.266429
v -0.153823 0.615291 -0.266429
v -0.307646 0.615291 -0.000000
v -0.153823 0.615291 0.266429
v 0.153823 0.615291 0.266429
v 0.307646 0.615291 0.000000
v 0.148581 0.694916 -0.257351
v -0.148581 0.694916 -0.257351
v -0.297163 0.694916 0.000000
v -0.148581 0.694916 0.257351
v 0.148581 0.694916 0.257351
v 0.297163 0.694916 0.000000
v 0.133214 0.769114 -0.230734
v -0.133214 0.769114 -0.230734
v -0.266429 0.769114 0.000000
v -0.133214 0.769114 0.230734
v 0.133214 0.769114 0.230734
v 0.266429 0.769114 0.000000
v 0.108769 0.832830 -0.188394
v -0.108769 0.832830 -0.188394
v -0.217538 0.832830 0.000000
v -0.108769 0.832830 0.188394
v 0.108769 0.832830 0.188394
v 0.217538 0.832830 0.000000
v 0.076911 0.881720 -0.133214
v -0.076911 0.881720 -0.133214
v -0.153823 0.881720 0.000000
v -0.076911 0.881720 0.133214
v 0.076911 0.881720 0.133214
v 0.153823 0.881720 0.000000
v 0.039812 0.912454 -0.068957
v -0.039812 0.912454 -0.068957
v -0.079625 0.912454 0.000000
v -0.039812 0.912454 0.068957
v 0.039812 0.912454 0.068957
v 0.079625 0.912454 0.000000
v 0.000000 0.922937 0.000000
vt 0.578125 0.708434
vt 0.421875 0.708434
vt 0.343750 0.843750
vt 0.421875 0.979066
vt 0.578125 0.979066
vt 0.656250 0.843750
vt 0.565104 0.730986
vt 0.434896 0.730986
vt 0.369792 0.843750
vt 0.434896 0.956514
vt 0.565104 0.956514
vt 0.630208 0.843750
vt 0.552083 0.753539
vt 0.447917 0.753539
vt 0.395833 0.843750
vt 0.447917 0.933961
vt 0.552083 0.933961
vt 0.604167 0.843750
vt 0.539063 0.776092
vt 0.460938 0.776092
vt 0.421875 0.843750
vt 0.460938 0.911408
vt 0.539063 0.911408
vt 0.578125 0.843750
vt 0.526042 0.798645
vt 0.473958 0.798644
vt 0.447917 0.843750
vt 0.473958 0.888855
vt 0.526042 0.888855
vt 0.552083 0.843750
vt 0.513021 0.821197
vt 0.486979 0.821197
vt 0.473958 0.843750
vt 0.486979 0.866303
vt 0.513021 0.866303
vt 0.526042 0.843750
vt 0.500000 0.837500
vt 0.578125 0.979066
vt 0.421875 0.979066
vt 0.434896 0.956514
vt 0.565104 0.956514
vt 0.343750 0.843750
vt 0.369792 0.843750
vt 0.421875 0.708434
vt 0.434896 0.730986
vt 0.578125 0.708434
vt 0.565104 0.730986
vt 0.656250 0.843750
vt 0.630208 0.843750
vt 0.447917 0.933961
vt 0.552083 0.933961
vt 0.395833 0.843750
vt 0.447917 0.753539
vt 0.552083 0.753539
vt 0.604167 0.843750
vt 0.460938 0.911408
vt 0.539063 0.911408
vt 0.421875 0.843750
vt 0.460938 0.776092
vt 0.539063 0.776092
vt 0.578125 0.843750
vt 0.473958 0.888855
vt 0.526042 0.888855
vt 0.447917 0.843750
vt 0.473958 0.798644
vt 0.526042 0.798645
vt 0.552083 0.843750
vt 0.486979 0.866303
vt 0.513021 0.866303
vt 0.473958 0.843750
vt 0.486979 0.821197
vt 0.513021 0.821197
vt 0.526042 0.843750
vt 0.500000 0.837500
vt 0.375000 0.312500
vt 0.416667 0.312500
vt 0.416667 0.688440
vt 0.375000 0.688440
vt 0.458333 0.312500
vt 0.458333 0.688440
vt 0.500000 0.312500
vt 0.500000 0.688440
vt 0.541667 0.312500
vt 0.541667 0.688440
vt 0.583333 0.312500
vt 0.583333 0.688440
vt 0.625000 0.312500
vt 0.625000 0.688440
vt 0.578125 0.979066
vt 0.421875 0.979066
vt 0.434896 0.956514
vt 0.565104 0.956514
vt 0.343750 0.843750
vt 0.369792 0.843750
vt 0.421875 0.708434
vt 0.434896 0.730986
vt 0.578125 0.708434
vt 0.565104 0.730986
vt 0.656250 0.843750
vt 0.630208 0.843750
vt 0.447917 0.933961
vt 0.552083 0.933961
vt 0.395833 0.843750
vt 0.447917 0.753539
vt 0.552083 0.753539
vt 0.604167 0.843750
vt 0.460938 0.911408
vt 0.539063 0.911408
vt 0.421875 0.843750
vt 0.460938 0.776092
vt 0.539063 0.776092
vt 0.578125 0.843750
vt 0.473958 0.888855
vt 0.526042 0.888855
vt 0.447917 0.843750
vt 0.473958 0.798644
vt 0.526042 0.798645
vt 0.552083 0.843750
vt 0.486979 0.866303
vt 0.513021 0.866303
vt 0.473958 0.843750
vt 0.486979 0.821197
vt 0.513021 0.821197
vt 0.526042 0.843750
vt 0.500000 0.837500
vn 0.000000 -0.113281 -0.993563
vn 0.000000 -0.113281 -0.993563
vn 0.000000 -0.113281 -0.993563
vn 0.000000 -0.113281 -0.993563
vn -0.860451 -0.113281 -0.496781
vn -0.860451 -0.113281 -0.496781
vn -0.860451 -0.113281 -0.496781
vn -0.860451 -0.113281 -0.496781
vn -0.860451 -0.113281 0.496782
vn -0.860451 -0.113281 0.496782
vn -0.860451 -0.113281 0.496782
vn -0.860451 -0.113281 0.496782
vn -0.000000 -0.113281 0.993563
vn -0.000000 -0.113281 0.993563
vn -0.000000 -0.113281 0.993563
vn -0.000000 -0.113281 0.993563
vn 0.860451 -0.113281 0.496781
vn 0.860451 -0.113281 0.496781
vn 0.860451 -0.113281 0.496781
vn 0.860451 -0.113281 0.496781
vn 0.860451 -0.113281 -0.496782
vn 0.860451 -0.113281 -0.496782
vn 0.860451 -0.113281 -0.496782
vn 0.860451 -0.113281 -0.496782
vn 0.000000 -0.337652 -0.941271
vn 0.000000 -0.337652 -0.941271
vn 0.000000 -0.337652 -0.941271
vn 0.000000 -0.337652 -0.941271
vn -0.815165 -0.337652 -0.470635
vn -0.815165 -0.337652 -0.470635
vn -0.815165 -0.337652 -0.470635
vn -0.815165 -0.337652 -0.470635
vn -0.815165 -0.337652 0.470635
vn -0.815165 -0.337652 0.470635
vn -0.815165 -0.337652 0.470635
vn -0.815165 -0.337652 0.470635
vn 0.000000 -0.337652 0.941271
vn 0.000000 -0.337652 0.941271
vn 0.000000 -0.337652 0.941271
vn 0.000000 -0.337652 0.941271
vn 0.815165 -0.337652 0.470635
vn 0.815165 -0.337652 0.470635
vn 0.815165 -0.337652 0.470635
vn 0.815165 -0.337652 0.470635
vn 0.815165 -0.337652 -0.470635
vn 0.815165 -0.337652 -0.470635
vn 0.815165 -0.337652 -0.470635
vn 0.815165 -0.337652 -0.470635
vn 0.000000 -0.553465 -0.832872
vn 0.000000 -0.553465 -0.832872
vn 0.000000 -0.553465 -0.832872
vn 0.000000 -0.553465 -0.832872
vn -0.721289 -0.553465 -0.416436
vn -0.721289 -0.553465 -0.416436
vn -0.721289 -0.553465 -0.416436
vn -0.721289 -0.553465 -0.416436
vn -0.721289 -0.553465 0.416436
vn -0.721289 -0.553465 0.416436
vn -0.721289 -0.553465 0.416436
vn -0.721289 -0.553465 0.416436
vn 0.000000 -0.553465 0.832872
vn 0.000000 -0.553465 0.832872
vn 0.000000 -0.553465 0.832872
vn 0.000000 -0.553465 0.832872
vn 0.721289 -0.553465 0.416436
vn 0.721289 -0.553465 0.416436
vn 0.721289 -0.553465 0.416436
vn 0.721289 -0.553465 0.416436
vn 0.721289 -0.553465 -0.416436
vn 0.721289 -0.553465 -0.416436
vn 0.721289 -0.553465 -0.416436
vn 0.721289 -0.553465 -0.416436
vn 0.000000 -0.748469 -0.663170
vn 0.000000 -0.748469 -0.663170
vn 0.000000 -0.748469 -0.663170
vn 0.000000 -0.748469 -0.663170
vn -0.574322 -0.748469 -0.331585
vn -0.574322 -0.748469 -0.331585
vn -0.574322 -0.748469 -0.331585
vn -0.574322 -0.748469 -0.331585
vn -0.574322 -0.748469 0.331585
vn -0.574322 -0.748469 0.331585
vn -0.574322 -0.748469 0.331585
vn -0.574322 -0.748469 0.331585
vn 0.000000 -0.748469 0.663170
vn 0.000000 -0.748469 0.663170
vn 0.000000 -0.748469 0.663170
vn 0.000000 -0.748469 0.663170
vn 0.574322 -0.748469 0.331585
vn 0.574322 -0.748469 0.331585
vn 0.574322 -0.748469 0.331585
vn 0.574322 -0.748469 0.331585
vn 0.574322 -0.748469 -0.331585
vn 0.574322 -0.748469 -0.331585
vn 0.574322 -0.748469 -0.331585
vn 0.574322 -0.748469 -0.331585
vn 0.000000 -0.902124 -0.431478
vn 0.000000 -0.902124 -0.431478
vn 0.000000 -0.902124 -0.431478
vn 0.000000 -0.902124 -0.431478
vn -0.373671 -0.902123 -0.215739
vn -0.373671 -0.902123 -0.215739
vn -0.373671 -0.902123 -0.215739
vn -0.373671 -0.902123 -0.215739
vn -0.373671 -0.902123 0.215739
vn -0.373671 -0.902123 0.215739
vn -0.373671 -0.902123 0.215739
vn -0.373671 -0.902123 0.215739
vn 0.000000 -0.902124 0.431478
vn 0.000000 -0.902124 0.431478
vn 0.000000 -0.902124 0.431478
vn 0.000000 -0.902124 0.431478
vn 0.373671 -0.902123 0.215739
vn 0.373671 -0.902123 0.215739
vn 0.373671 -0.902123 0.215739
vn 0.373671 -0.902123 0.215739
vn 0.373671 -0.902123 -0.215739
vn 0.373671 -0.902123 -0.215739
vn 0.373671 -0.902123 -0.215739
vn 0.373671 -0.902123 -0.215739
vn 0.000000 -0.988641 -0.150293
vn 0.000000 -0.988641 -0.150293
vn 0.000000 -0.988641 -0.150293
vn -0.130158 -0.988642 -0.075147
vn -0.130158 -0.988642 -0.075147
vn -0.130158 -0.988642 -0.075147
vn -0.130158 -0.988642 0.075147
vn -0.130158 -0.988642 0.075147
vn -0.130158 -0.988642 0.075147
vn 0.000000 -0.988641 0.150293
vn 0.000000 -0.988641 0.150293
vn 0.000000 -0.988641 0.150293
vn 0.130158 -0.988642 0.075147
vn 0.130158 -0.988642 0.075147
vn 0.130158 -0.988642 0.075147
vn 0.130158 -0.988642 -0.075147
vn 0.130158 -0.988642 -0.075147
vn 0.130158 -0.988642 -0.075147
vn 0.000000 0.113281 -0.993563
vn 0.000000 0.113281 -0.993563
vn 0.000000 0.113281 -0.993563
vn 0.000000 0.113281 -0.993563
vn -0.860451 0.113280 -0.496782
vn -0.860451 0.113280 -0.496782
vn -0.860451 0.113280 -0.496782
vn -0.860451 0.113280 -0.496782
vn -0.860451 0.113281 0.496782
vn -0.860451 0.113281 0.496782
vn -0.860451 0.113281 0.496782
vn -0.860451 0.113281 0.496782
vn -0.000000 0.113281 0.993563
vn -0.000000 0.113281 0.993563
vn -0.000000 0.113281 0.993563
vn -0.000000 0.113281 0.993563
vn 0.860451 0.113281 0.496782
vn 0.860451 0.113281 0.496782
vn 0.860451 0.113281 0.496782
vn 0.860451 0.113281 0.496782
vn 0.860451 0.113281 -0.496782
vn 0.860451 0.113281 -0.496782
vn 0.860451 0.113281 -0.496782
vn 0.860451 0.113281 -0.496782
vn 0.000000 0.337653 -0.941271
vn 0.000000 0.337653 -0.941271
vn 0.000000 0.337653 -0.941271
vn 0.000000 0.337653 -0.941271
vn -0.815165 0.337652 -0.470635
vn -0.815165 0.337652 -0.470635
vn -0.815165 0.337652 -0.470635
vn -0.815165 0.337652 -0.470635
vn -0.815165 0.337652 0.470635
vn -0.815165 0.337652 0.470635
vn -0.815165 0.337652 0.470635
vn -0.815165 0.337652 0.470635
vn 0.000000 0.337653 0.941271
vn 0.000000 0.337653 0.941271
vn 0.000000 0.337653 0.941271
vn 0.000000 0.337653 0.941271
vn 0.815165 0.337652 0.470635
vn 0.815165 0.337652 0.470635
vn 0.815165 0.337652 0.470635
vn 0.815165 0.337652 0.470635
vn 0.815165 0.337652 -0.470635
vn 0.815165 0.337652 -0.470635
vn 0.815165 0.337652 -0.470635
vn 0.815165 0.337652 -0.470635
vn 0.000000 0.553464 -0.832873
vn 0.000000 0.553464 -0.832873
vn 0.000000 0.553464 -0.832873
vn 0.000000 0.553464 -0.832873
vn -0.721289 0.553465 -0.416437
vn -0.721288 0.553465 -0.416437
vn -0.721289 0.553465 -0.416437
vn -0.721289 0.553465 -0.416437
vn -0.721288 0.553465 0.416437
vn -0.721289 0.553465 0.416437
vn -0.721289 0.553465 0.416437
vn -0.721288 0.553465 0.416437
vn 0.000000 0.553464 0.832873
vn 0.000000 0.553464 0.832873
vn 0.000000 0.553464 0.832873
vn 0.000000 0.553464 0.832873
vn 0.721289 0.553465 0.416437
vn 0.721288 0.553465 0.416437
vn 0.721289 0.553465 0.416437
vn 0.721289 0.553465 0.416437
vn 0.721288 0.553465 -0.416437
vn 0.721289 0.553465 -0.416437
vn 0.721289 0.553465 -0.416437
vn 0.721288 0.553465 -0.416437
vn 0.000000 0.748469 -0.663169
vn 0.000000 0.748469 -0.663169
vn 0.000000 0.748469 -0.663169
vn 0.000000 0.748469 -0.663169
vn -0.574322 0.748469 -0.331584
vn -0.574322 0.748469 -0.331584
vn -0.574322 0.748469 -0.331584
vn -0.574322 0.748469 -0.331584
vn -0.574322 0.748469 0.331584
vn -0.574322 0.748469 0.331584
vn -0.574322 0.748469 0.331584
vn -0.574322 0.748469 0.331584
vn 0.000000 0.748469 0.663169
vn 0.000000 0.748469 0.663169
vn 0.000000 0.748469 0.663169
vn 0.000000 0.748469 0.663169
vn 0.574322 0.748469 0.331584
vn 0.574322 0.748469 0.331584
vn 0.574322 0.748469 0.331584
vn 0.574322 0.748469 0.331584
vn 0.574322 0.748469 -0.331584
vn 0.574322 0.748469 -0.331584
vn 0.574322 0.748469 -0.331584
vn 0.574322 0.748469 -0.331584
vn 0.000000 0.902124 -0.431478
vn 0.000000 0.902124 -0.431478
vn 0.000000 0.902124 -0.431478
vn 0.000000 0.902124 -0.431478
vn -0.373671 0.902123 -0.215739
vn -0.373671 0.902123 -0.215739
vn -0.373671 0.902123 -0.215739
vn -0.373671 0.902123 -0.215739
vn -0.373671 0.902123 0.215739
vn -0.373671 0.902123 0.215739
vn -0.373671 0.902123 0.215739
vn -0.373671 0.902123 0.215739
vn 0.000000 0.902124 0.431478
vn 0.000000 0.902124 0.431478
vn 0.000000 0.902124 0.431478
vn 0.000000 0.902124 0.431478
vn 0.373671 0.902123 0.215739
vn 0.373671 0.902123 0.215739
vn 0.373671 0.902123 0.215739
vn 0.373671 0.902123 0.215739
vn 0.373671 0.902123 -0.215739
vn 0.373671 0.902123 -0.215739
vn 0.373671 0.902123 -0.215739
vn 0.373671 0.902123 -0.215739
vn 0.000000 0.988642 -0.150290
vn 0.000000 0.988642 -0.150290
vn 0.000000 0.988642 -0.150289
vn -0.130158 0.988642 -0.075145
vn -0.130158 0.988642 -0.075145
vn -0.130158 0.988642 -0.075145
vn -0.130158 0.988642 0.075147
vn -0.130158 0.988642 0.075147
vn -0.130158 0.988641 0.075147
vn 0.000000 0.988642 0.150290
vn 0.000000 0.988642 0.150290
vn 0.000000 0.988642 0.150289
vn 0.130158 0.988642 0.075145
vn 0.130158 0.988642 0.075145
vn 0.130158 0.988642 0.075145
vn 0.130158 0.988642 -0.075147
vn 0.130158 0.988642 -0.075147
vn 0.130158 0.988641 -0.075147
vn 0.000000 0.000000 -1.000000
vn 0.000000 0.000000 -1.000000
vn 0.000000 0.000000 -1.000000
vn 0.000000 0.000000 -1.000000
vn -0.866025 0.000000 -0.500000
vn -0.866025 0.000000 -0.500000
vn -0.866025 0.000000 -0.500000
vn -0.866025 0.000000 -0.500000
vn -0.866026 0.000000 0.500000
vn -0.866026 0.000000 0.500000
vn -0.866026 0.000000 0.500000
vn -0.866026 0.000000 0.500000
vn -0.000000 0.000000 1.000000
vn -0.000000 0.000000 1.000000
vn -0.000000 0.000000 1.000000
vn -0.000000 0.000000 1.000000
vn 0.866025 0.000000 0.500000
vn 0.866025 0.000000 0.500000
vn 0.866025 0.000000 0.500000
vn 0.866025 0.000000 0.500000
vn 0.866026 0.000000 -0.500000
vn 0.866026 0.000000 -0.500000
vn 0.866026 0.000000 -0.500000
vn 0.866026 0.000000 -0.500000
vn 0.000000 0.113281 -0.993563
vn 0.000000 0.113281 -0.993563
vn 0.000000 0.113281 -0.993563
vn 0.000000 0.113281 -0.993563
vn -0.860451 0.113280 -0.496782
vn -0.860451 0.113280 -0.496782
vn -0.860451 0.113280 -0.496782
vn -0.860451 0.113280 -0.496782
vn -0.860451 0.113281 0.496781
vn -0.860451 0.113281 0.496781
vn -0.860451 0.113281 0.496781
vn -0.860451 0.113281 0.496781
vn -0.000000 0.113281 0.993563
vn -0.000000 0.113281 0.993563
vn -0.000000 0.113281 0.993563
vn -0.000000 0.113281 0.993563
vn 0.860451 0.113281 0.496782
vn 0.860451 0.113281 0.496782
vn 0.860451 0.113281 0.496782
vn 0.860451 0.113281 0.496782
vn 0.860451 0.113281 -0.496781
vn 0.860451 0.113281 -0.496781
vn 0.860451 0.113281 -0.496781
vn 0.860451 0.113281 -0.496781
vn 0.000000 0.337652 -0.941271
vn 0.000000 0.337652 -0.941271
vn 0.000000 0.337652 -0.941271
vn 0.000000 0.337652 -0.941271
vn -0.815165 0.337652 -0.470635
vn -0.815165 0.337652 -0.470635
vn -0.815165 0.337652 -0.470635
vn -0.815165 0.337652 -0.470635
vn -0.815165 0.337652 0.470635
vn -0.815165 0.337652 0.470635
vn -0.815165 0.337652 0.470635
vn -0.815165 0.337652 0.470635
vn 0.000000 0.337652 0.941271
vn 0.000000 0.337652 0.941271
vn 0.000000 0.337652 0.941271
vn 0.000000 0.337652 0.941271
vn 0.815165 0.337652 0.470635
vn 0.815165 0.337652 0.470635
vn 0.815165 0.337652 0.470635
vn 0.815165 0.337652 0.470635
vn 0.815165 0.337652 -0.470635
vn 0.815165 0.337652 -0.470635
vn 0.815165 0.337652 -0.470635
vn 0.815165 0.337652 -0.470635
vn 0.000000 0.553464 -0.832873
vn 0.000000 0.553464 -0.832873
vn 0.000000 0.553464 -0.832873
vn 0.000000 0.553464 -0.832873
vn -0.721289 0.553464 -0.416436
vn -0.721289 0.553464 -0.416436
vn -0.721289 0.553465 -0.416437
vn -0.721289 0.553464 -0.416437
vn -0.721289 0.553464 0.416437
vn -0.721289 0.553465 0.416437
vn -0.721289 0.553464 0.416437
vn -0.721289 0.553464 0.416437
vn 0.000000 0.553464 0.832873
vn 0.000000 0.553464 0.832873
vn 0.000000 0.553464 0.832873
vn 0.000000 0.553464 0.832873
vn 0.721289 0.553464 0.416436
vn 0.721289 0.553464 0.416436
vn 0.721289 0.553465 0.416437
vn 0.721289 0.553464 0.416437
vn 0.721289 0.553464 -0.416437
vn 0.721289 0.553465 -0.416437
vn 0.721289 0.553464 -0.416437
vn 0.721289 0.553464 -0.416437
vn 0.000000 0.748470 -0.663169
vn 0.000000 0.748470 -0.663169
vn 0.000000 0.748470 -0.663169
vn 0.000000 0.748470 -0.663169
vn -0.574321 0.748470 -0.331585
vn -0.574321 0.748470 -0.331585
vn -0.574321 0.748470 -0.331585
vn -0.574321 0.748470 -0.331585
vn -0.574321 0.748470 0.331585
vn -0.574321 0.748470 0.331585
vn -0.574321 0.748470 0.331585
vn -0.574321 0.748470 0.331585
vn 0.000000 0.748470 0.663169
vn 0.000000 0.748470 0.663169
vn 0.000000 0.748470 0.663169
vn 0.000000 0.748470 0.663169
vn 0.574321 0.748470 0.331585
vn 0.574321 0.748470 0.331585
vn 0.574321 0.748470 0.331585
vn 0.574321 0.748470 0.331585
vn 0.574321 0.748470 -0.331585
vn 0.574321 0.748470 -0.331585
vn 0.574321 0.748470 -0.331585
vn 0.574321 0.748470 -0.331585
vn 0.000000 0.902123 -0.431478
vn 0.000000 0.902123 -0.431478
vn 0.000000 0.902123 -0.431478
vn 0.000000 0.902123 -0.431478
vn -0.373671 0.902123 -0.215739
vn -0.373671 0.902123 -0.215739
vn -0.373671 0.902123 -0.215739
vn -0.373671 0.902123 -0.215739
vn -0.373671 0.902124 0.215738
vn -0.373671 0.902124 0.215738
vn -0.373671 0.902124 0.215738
vn -0.373671 0.902124 0.215738
vn 0.000000 0.902123 0.431478
vn 0.000000 0.902123 0.431478
vn 0.000000 0.902123 0.431478
vn 0.000000 0.902123 0.431478
vn 0.373671 0.902123 0.215739
vn 0.373671 0.902123 0.215739
vn 0.373671 0.902123 0.215739
vn 0.373671 0.902123 0.215739
vn 0.373671 0.902124 -0.215738
vn 0.373671 0.902124 -0.215738
vn 0.373671 0.902124 -0.215738
vn 0.373671 0.902124 -0.215738
vn 0.000000 0.988641 -0.150293
vn 0.000000 0.988641 -0.150293
vn 0.000000 0.988641 -0.150293
vn -0.130158 0.988642 -0.075147
vn -0.130158 0.988642 -0.075147
vn -0.130158 0.988642 -0.075147
vn -0.130158 0.988642 0.075147
vn -0.130158 0.988642 0.075147
vn -0.130158 0.988642 0.075147
vn 0.000000 0.988641 0.150293
vn 0.000000 0.988641 0.150293
vn 0.000000 0.988641 0.150293
vn 0.130158 0.988642 0.075147
vn 0.130158 0.988642 0.075147
vn 0.130158 0.988642 0.075147
vn 0.130158 0.988642 -0.075147
vn 0.130158 0.988642 -0.075147
vn 0.130158 0.988642 -0.075147
g pCylinder5
f 1/5/1 7/11/2 8/10/3 2/4/4
f 2/4/5 8/10/6 9/9/7 3/3/8
f 3/3/9 9/9/10 10/8/11 4/2/12
f 4/2/13 10/8/14 11/7/15 5/1/16
f 5/1/17 11/7/18 12/12/19 6/6/20
f 6/6/21 12/12/22 7/11/23 1/5/24
f 7/11/25 13/17/26 14/16/27 8/10/28
f 8/10/29 14/16/30 15/15/31 9/9/32
f 9/9/33 15/15/34 16/14/35 10/8/36
f 10/8/37 16/14/38 17/13/39 11/7/40
f 11/7/41 17/13/42 18/18/43 12/12/44
f 12/12/45 18/18/46 13/17/47 7/11/48
f 13/17/49 19/23/50 20/22/51 14/16/52
f 14/16/53 20/22/54 21/21/55 15/15/56
f 15/15/57 21/21/58 22/20/59 16/14/60
f 16/14/61 22/20/62 23/19/63 17/13/64
f 17/13/65 23/19/66 24/24/67 18/18/68
f 18/18/69 24/24/70 19/23/71 13/17/72
f 19/23/73 25/29/74 26/28/75 20/22/76
f 20/22/77 26/28/78 27/27/79 21/21/80
f 21/21/81 27/27/82 28/26/83 22/20/84
f 22/20/85 28/26/86 29/25/87 23/19/88
f 23/19/89 29/25/90 30/30/91 24/24/92
f 24/24/93 30/30/94 25/29/95 19/23/96
f 25/29/97 31/35/98 32/34/99 26/28/100
f 26/28/101 32/34/102 33/33/103 27/27/104
f 27/27/105 33/33/106 34/32/107 28/26/108
f 28/26/109 34/32/110 35/31/111 29/25/112
f 29/25/113 35/31/114 36/36/115 30/30/116
f 30/30/117 36/36/118 31/35/119 25/29/120
f 31/35/121 37/37/122 32/34/123
f 32/34/124 37/37/125 33/33/126
f 33/33/127 37/37/128 34/32/129
f 34/32/130 37/37/131 35/31/132
f 35/31/133 37/37/134 36/36/135
f 36/36/136 37/37/137 31/35/138
f 1/38/139 2/39/140 39/40/141 38/41/142
f 2/39/143 3/42/144 40/43/145 39/40/146
f 3/42/147 4/44/148 41/45/149 40/43/150
f 4/44/151 5/46/152 42/47/153 41/45/154
f 5/46/155 6/48/156 43/49/157 42/47/158
f 6/48/159 1/38/160 38/41/161 43/49/162
f 38/41/163 39/40/164 45/50/165 44/51/166
f 39/40/167 40/43/168 46/52/169 45/50/170
f 40/43/171 41/45/172 47/53/173 46/52/174
f 41/45/175 42/47/176 48/54/177 47/53/178
f 42/47/179 43/49/180 49/55/181 48/54/182
f 43/49/183 38/41/184 44/51/185 49/55/186
f 44/51/187 45/50/188 51/56/189 50/57/190
f 45/50/191 46/52/192 52/58/193 51/56/194
f 46/52/195 47/53/196 53/59/197 52/58/198
f 47/53/199 48/54/200 54/60/201 53/59/202
f 48/54/203 49/55/204 55/61/205 54/60/206
f 49/55/207 44/51/208 50/57/209 55/61/210
f 50/57/211 51/56/212 57/62/213 56/63/214
f 51/56/215 52/58/216 58/64/217 57/62/218
f 52/58/219 53/59/220 59/65/221 58/64/222
f 53/59/223 54/60/224 60/66/225 59/65/226
f 54/60/227 55/61/228 61/67/229 60/66/230
f 55/61/231 50/57/232 56/63/233 61/67/234
f 56/63/235 57/62/236 63/68/237 62/69/238
f 57/62/239 58/64/240 64/70/241 63/68/242
f 58/64/243 59/65/244 65/71/245 64/70/246
f 59/65/247 60/66/248 66/72/249 65/71/250
f 60/66/251 61/67/252 67/73/253 66/72/254
f 61/67/255 56/63/256 62/69/257 67/73/258
f 62/69/259 63/68/260 68/74/261
f 63/68/262 64/70/263 68/74/264
f 64/70/265 65/71/266 68/74/267
f 65/71/268 66/72/269 68/74/270
f 66/72/271 67/73/272 68/74/273
f 67/73/274 62/69/275 68/74/276
f 69/75/277 70/76/278 76/77/279 75/78/280
f 70/76/281 71/79/282 77/80/283 76/77/284
f 71/79/285 72/81/286 78/82/287 77/80/288
f 72/81/289 73/83/290 79/84/291 78/82/292
f 73/83/293 74/85/294 80/86/295 79/84/296
f 74/85/297 69/87/298 75/88/299 80/86/300
f 75/89/301 76/90/302 82/91/303 81/92/304
f 76/90/305 77/93/306 83/94/307 82/91/308
f 77/93/309 78/95/310 84/96/311 83/94/312
f 78/95/313 79/97/314 85/98/315 84/96/316
f 79/97/317 80/99/318 86/100/319 85/98/320
f 80/99/321 75/89/322 81/92/323 86/100/324
f 81/92/325 82/91/326 88/101/327 87/102/328
f 82/91/329 83/94/330 89/103/331 88/101/332
f 83/94/333 84/96/334 90/104/335 89/103/336
f 84/96/337 85/98/338 91/105/339 90/104/340
f 85/98/341 86/100/342 92/106/343 91/105/344
f 86/100/345 81/92/346 87/102/347 92/106/348
f 87/102/349 88/101/350 94/107/351 93/108/352
f 88/101/353 89/103/354 95/109/355 94/107/356
f 89/103/357 90/104/358 96/110/359 95/109/360
f 90/104/361 91/105/362 97/111/363 96/110/364
f 91/105/365 92/106/366 98/112/367 97/111/368
f 92/106/369 87/102/370 93/108/371 98/112/372
f 93/108/373 94/107/374 100/113/375 99/114/376
f 94/107/377 95/109/378 101/115/379 100/113/380
f 95/109/381 96/110/382 102/116/383 101/115/384
f 96/110/385 97/111/386 103/117/387 102/116/388
f 97/111/389 98/112/390 104/118/391 103/117/392
f 98/112/393 93/108/394 99/114/395 104/118/396
f 99/114/397 100/113/398 106/119/399 105/120/400
f 100/113/401 101/115/402 107/121/403 106/119/404
f 101/115/405 102/116/406 108/122/407 107/121/408
f 102/116/409 103/117/410 109/123/411 108/122/412
f 103/117/413 104/118/414 110/124/415 109/123/416
f 104/118/417 99/114/418 105/120/419 110/124/420
f 105/120/421 106/119/422 111/125/423
f 106/119/424 107/121/425 111/125/426
f 107/121/427 108/122/428 111/125/429
f 108/122/430 109/123/431 111/125/432
f 109/123/433 110/124/434 111/125/435
f 110/124/436 105/120/437 111/125/438
